<?xml version="1.0" encoding="utf-8"?>
<!-- Generator: Adobe Illustrator 23.0.1, SVG Export Plug-In . SVG Version: 6.00 Build 0)  -->
<svg version="1.1" id="Layer_1" xmlns="http://www.w3.org/2000/svg" xmlns:xlink="http://www.w3.org/1999/xlink" x="0px" y="0px"
	 viewBox="0 0 50 50" style="enable-background:new 0 0 50 50;" xml:space="preserve">
<style type="text/css">
	.st0{fill:#FFFFFF;}
</style>
<path class="st0" d="M14.1,20.3c0,0.6,0.1,1.1,0.2,1.6c0.1,0.3,0.3,0.7,0.5,1.2c0.1,0.1,0.1,0.3,0.1,0.4c0,0.2-0.1,0.3-0.3,0.5
	l-1.1,0.7c-0.2,0.1-0.3,0.2-0.4,0.2c-0.2,0-0.3-0.1-0.5-0.3c-0.2-0.3-0.4-0.5-0.6-0.8c-0.2-0.3-0.3-0.6-0.5-1
	c-1.3,1.5-2.9,2.3-4.9,2.3c-1.4,0-2.5-0.4-3.3-1.2c-0.8-0.8-1.2-1.9-1.2-3.2c0-1.4,0.5-2.5,1.5-3.4c1-0.9,2.4-1.3,4.1-1.3
	c0.6,0,1.1,0.1,1.8,0.2c0.6,0.1,1.3,0.2,1.9,0.4v-1.2c0-1.3-0.3-2.1-0.8-2.7C10,12,9.1,11.8,7.9,11.8c-0.6,0-1.2,0.1-1.8,0.2
	c-0.6,0.2-1.2,0.3-1.8,0.6c-0.3,0.1-0.5,0.2-0.6,0.2c-0.1,0.1-0.2,0.1-0.3,0.1c-0.2,0-0.4-0.2-0.4-0.5v-0.8c0-0.3,0-0.5,0.1-0.6
	c0.1-0.1,0.2-0.2,0.5-0.3c0.6-0.4,1.3-0.6,2.1-0.8c0.8-0.2,1.7-0.3,2.6-0.3c2,0,3.4,0.5,4.4,1.4c0.9,0.9,1.4,2.3,1.4,4.1L14.1,20.3
	L14.1,20.3 M7.4,22.9c0.6,0,1.1-0.1,1.7-0.3s1.1-0.6,1.6-1.1c0.3-0.3,0.5-0.7,0.6-1.1c0-0.4,0.1-0.9,0.1-1.5v-0.7
	c-0.5-0.2-1-0.2-1.6-0.3c-0.5-0.1-1-0.1-1.6-0.1c-1.1,0-1.9,0.2-2.5,0.7C5.3,19,5,19.7,5,20.5c0,0.8,0.2,1.4,0.6,1.8
	C6,22.7,6.6,22.9,7.4,22.9 M20.7,24.7c-0.2,0-0.5,0-0.7-0.2c-0.1-0.1-0.2-0.4-0.3-0.7L15.8,11c-0.1-0.4-0.2-0.6-0.2-0.7
	c0-0.3,0.1-0.4,0.4-0.4h1.6c0.3,0,0.6,0.1,0.7,0.2c0.2,0.1,0.3,0.3,0.4,0.7l2.8,11l2.6-11c0.1-0.3,0.2-0.6,0.3-0.7
	c0.1-0.1,0.4-0.2,0.6-0.2h1.4c0.3,0,0.5,0.1,0.7,0.2c0.1,0.1,0.3,0.3,0.3,0.7L30,21.9l2.9-11.2c0.1-0.3,0.2-0.6,0.3-0.7
	c0.2-0.1,0.4-0.2,0.7-0.2h1.6c0.3,0,0.4,0.2,0.4,0.4c0,0.1,0,0.2-0.1,0.3c0,0-0.1,0.2-0.1,0.4l-4,12.9c-0.1,0.4-0.2,0.5-0.4,0.7
	c-0.1,0.1-0.3,0.2-0.6,0.2h-1.4c-0.3,0-0.5-0.1-0.7-0.2c-0.2-0.2-0.3-0.4-0.3-0.7l-2.6-10.7l-2.6,10.7c-0.1,0.3-0.2,0.6-0.3,0.7
	c-0.2,0.1-0.4,0.2-0.7,0.2L20.7,24.7 M42.1,25.1c-0.8,0-1.8-0.1-2.6-0.3c-0.8-0.2-1.5-0.4-1.9-0.7c-0.2-0.1-0.4-0.3-0.5-0.5
	C37,23.5,37,23.4,37,23.2v-0.9c0-0.4,0.1-0.5,0.4-0.5h0.3c0.1,0,0.3,0.1,0.4,0.2c0.6,0.3,1.2,0.5,1.8,0.6c0.7,0.1,1.4,0.2,2,0.2
	c1.1,0,1.9-0.2,2.4-0.6c0.6-0.4,0.9-0.9,0.9-1.6c0-0.5-0.2-0.9-0.5-1.2c-0.3-0.3-0.9-0.6-1.7-0.9L40.6,18c-1.2-0.4-2.1-1-2.7-1.7
	c-0.5-0.7-0.8-1.5-0.8-2.4c0-0.7,0.2-1.3,0.5-1.8c0.3-0.6,0.7-1,1.2-1.4c0.6-0.4,1.1-0.7,1.8-0.9c0.7-0.2,1.4-0.3,2.1-0.3
	c0.4,0,0.7,0,1.1,0.1c0.4,0.1,0.7,0.1,1.1,0.2c0.4,0.1,0.7,0.2,1,0.3c0.3,0.1,0.5,0.2,0.7,0.3c0.2,0.1,0.4,0.3,0.5,0.4
	s0.2,0.3,0.2,0.6v0.8c0,0.4-0.1,0.5-0.4,0.5c-0.1,0-0.4-0.1-0.7-0.2c-0.9-0.4-2-0.7-3.2-0.7c-1,0-1.7,0.2-2.2,0.5
	c-0.5,0.3-0.8,0.8-0.8,1.5c0,0.5,0.2,0.9,0.5,1.2c0.3,0.3,1,0.6,1.8,0.9l2.4,0.8c1.2,0.4,2.1,0.9,2.6,1.6c0.5,0.7,0.8,1.5,0.8,2.3
	c0,0.7-0.2,1.4-0.4,1.9c-0.3,0.6-0.7,1.1-1.3,1.5c-0.5,0.4-1.1,0.7-1.8,1C43.8,25,42.9,25.1,42.1,25.1 M45.2,33.2
	c-5.5,4-13.4,6.2-20.2,6.2c-9.6,0-18.3-3.6-24.8-9.4c-0.5-0.5-0.1-1.1,0.6-0.7c7.1,4.1,15.7,6.6,24.7,6.6c6.1,0,12.8-1.3,18.9-3.9
	C45.3,31.5,46.1,32.5,45.2,33.2 M47.5,30.6c-0.7-0.9-4.7-0.5-6.4-0.3c-0.5,0.1-0.6-0.4-0.1-0.8c3.1-2.2,8.3-1.5,8.9-0.8
	c0.6,0.8-0.2,5.9-3.1,8.4c-0.5,0.4-0.9,0.2-0.7-0.3C46.7,35.2,48.2,31.5,47.5,30.6z"/>
</svg>
