<?xml version="1.0" encoding="utf-8"?>
<!-- Generator: Adobe Illustrator 23.0.1, SVG Export Plug-In . SVG Version: 6.00 Build 0)  -->
<svg version="1.1" id="Layer_1" xmlns="http://www.w3.org/2000/svg" xmlns:xlink="http://www.w3.org/1999/xlink" x="0px" y="0px"
	 viewBox="0 0 32 32" style="enable-background:new 0 0 32 32;" xml:space="preserve">
<style type="text/css">
	.st0{fill:#8CD6FF;}
	.st1{fill:#FFFFFF;}
</style>
<path class="st0" d="M13.6,31.8c0.8,0.1,1.6,0.2,2.4,0.2s1.6-0.1,2.4-0.2H13.6z"/>
<path class="st1" d="M16,0C7.2,0,0,7.2,0,16c0,5.5,2.8,10.4,7,13.2c0.8,0.6,1.7,1,2.6,1.4c0.1,0,0.2,0.1,0.2,0.1
	c1.2,0.5,2.4,0.8,3.7,1h4.9c1.3-0.2,2.5-0.5,3.7-1c0,0,0.1,0,0.1-0.1c0.9-0.4,1.8-0.9,2.6-1.4C29.2,26.4,32,21.5,32,16
	C32,7.2,24.8,0,16,0z M16,29.1c-2.3,0-4.5-0.6-6.4-1.7v-0.8c0-2,1.7-3.7,3.7-3.7h5.3c2,0,3.7,1.6,3.7,3.7v0.9
	C20.4,28.5,18.3,29.1,16,29.1z M24.9,25.6c-0.1-2.8-2.4-5-5.2-5h-7.5c-2.8,0-5,2.2-5.2,4.9c-2.5-2.4-4.1-5.7-4.1-9.5
	C2.9,8.8,8.8,2.9,16,2.9S29.1,8.8,29.1,16C29.1,19.8,27.5,23.2,24.9,25.6z"/>
<path class="st1" d="M16,6.9c-3.2,0-5.7,2.5-5.7,5.7s2.5,5.7,5.7,5.7s5.7-2.5,5.7-5.7C21.7,9.5,19.2,6.9,16,6.9z M16,15.9
	c-1.8,0-3.3-1.5-3.3-3.3s1.5-3.3,3.3-3.3s3.3,1.5,3.3,3.3S17.8,15.9,16,15.9z"/>
</svg>
