<?xml version="1.0" encoding="utf-8"?>
<!-- Generator: Adobe Illustrator 23.0.1, SVG Export Plug-In . SVG Version: 6.00 Build 0)  -->
<svg version="1.1" id="Layer_1" xmlns="http://www.w3.org/2000/svg" xmlns:xlink="http://www.w3.org/1999/xlink" x="0px" y="0px"
	 viewBox="0 0 32 32" style="enable-background:new 0 0 32 32;" xml:space="preserve">
<style type="text/css">
	.st0{fill:#FFFFFF;}
</style>
<path class="st0" d="M14,0.7c1.2-1,2.9-1,4,0l12.2,9.9c1.1,0.9,1.8,2.3,1.8,3.7v14.5c0,1.8-1.4,3.2-3.2,3.2h-6.4
	c-1.8,0-3.2-1.4-3.2-3.2v-9.6h-6.4v9.6c0,1.8-1.4,3.2-3.2,3.2H3.2C1.4,32,0,30.6,0,28.8V14.3c0-1.4,0.7-2.8,1.8-3.7L14,0.7L14,0.7z
	 M28.2,13.1L16,3.2L3.8,13.1c-0.4,0.3-0.6,0.8-0.6,1.2v14.5h6.4v-9.6c0-1.8,1.4-3.2,3.2-3.2h6.4c1.8,0,3.2,1.4,3.2,3.2v9.6h6.4V14.3
	C28.8,13.8,28.6,13.4,28.2,13.1z"/>
</svg>
