<?xml version="1.0" encoding="utf-8"?>
<!-- Generator: Adobe Illustrator 23.0.1, SVG Export Plug-In . SVG Version: 6.00 Build 0)  -->
<svg version="1.1" id="Layer_1" xmlns="http://www.w3.org/2000/svg" xmlns:xlink="http://www.w3.org/1999/xlink" x="0px" y="0px"
	 viewBox="0 0 25 24.9" style="enable-background:new 0 0 25 24.9;" xml:space="preserve">
<style type="text/css">
	.st0{fill:#FFFFFF;}
</style>
<path class="st0" d="M24.4,11L14,0.6c-0.2-0.2-0.4-0.3-0.7-0.4c-0.5-0.2-1.1-0.2-1.6,0c-0.3,0.1-0.5,0.2-0.7,0.4L0.6,11
	c-0.8,0.8-0.8,2.1,0,3s2.1,0.8,3,0l0,0l6.8-6.9v15.8c0,1.1,0.9,2.1,2.1,2.1s2.1-0.9,2.1-2.1V7.1l6.8,6.9c0.8,0.8,2.1,0.8,2.9,0
	c0,0,0,0,0,0C25.2,13.1,25.2,11.8,24.4,11C24.4,11,24.4,11,24.4,11z"/>
</svg>
